<?xml version="1.0" encoding="utf-8"?>
<!-- Generator: Adobe Illustrator 21.0.2, SVG Export Plug-In . SVG Version: 6.00 Build 0)  -->
<svg version="1.1" id="Layer_1" xmlns="http://www.w3.org/2000/svg" xmlns:xlink="http://www.w3.org/1999/xlink" x="0px" y="0px"
	 width="200px" height="38.8333321px" viewBox="0 0 200 38.8333321" style="enable-background:new 0 0 200 38.8333321;"
	 xml:space="preserve">
<style type="text/css">
	.st0{fill:#2397D4;}
	.st1{fill:#2F4A75;}
</style>
<g>
	<path class="st0" d="M0.707891,0.6332861l17.0477066,13.9165192L30.1764622,1.1218526
		c0.1723461-0.1863194,0.0401993-0.4885666-0.2136078-0.4885666H0.707891z"/>
	<path class="st0" d="M0.707891,38.2000465l17.0477066-13.9165192l12.4208641,13.4279518
		c0.1723461,0.1863213,0.0401993,0.4885674-0.2136078,0.4885674H0.707891z"/>
	<path class="st1" d="M0.8950492,0.705603l22.6395054,18.4641247c0.1563416,0.1275082,0.1563416,0.3663712,0,0.4938793
		L0.8950492,38.1277313C0.6869051,38.2974854,0.375,38.1493835,0.375,37.8807907V0.9525422
		C0.375,0.6839512,0.6869051,0.5358467,0.8950492,0.705603z"/>
	<path class="st1" d="M94.5360565,27.2934971c0,6.4353886-5.2019653,10.8866215-11.6909637,10.8866215H67.2220154
		c-0.1681519,0-0.3044662-0.1363106-0.3044662-0.3044586V0.9388109c0-0.1650682,0.1338196-0.2988824,0.2988815-0.2988824h14.5022278
		c6.3283997,0,11.4231491,4.290411,11.4231491,10.5649786c0,3.2175817-1.3408661,5.7382669-3.5394516,7.5079927
		C92.6057281,20.4290199,94.5360565,23.3785648,94.5360565,27.2934971z M74.3181,7.8112688v7.6933689
		c0,0.172493,0.1398392,0.3123255,0.3123322,0.3123255h7.0882263c2.4399796,0,4.2196579-1.980916,4.0050507-4.5455599
		c-0.1777039-2.1236658-2.0397415-3.7133913-4.1708298-3.7133913l-6.9815216,0.0000005
		C74.431488,7.5580125,74.3181,7.6713996,74.3181,7.8112688z M87.1778259,26.4611931
		c-0.1444092-2.3001442-2.1427536-4.0480156-4.4474258-4.0480156L74.3181,22.4131756v8.8488598h8.5269928
		C85.4785538,31.2620354,87.3506241,29.2133846,87.1778259,26.4611931z"/>
	<path class="st1" d="M121.0421066,31.4228592h-14.559906c-0.1202393,0-0.2269974,0.0769444-0.2650223,0.1910172
		l-2.1250763,6.3752251c-0.0380249,0.1140747-0.1447754,0.1910172-0.2650223,0.1910172h-7.3953552
		c-0.1924362,0-0.3272476-0.1900139-0.2636795-0.3716469l12.9434967-36.9814682
		c0.0392151-0.1120478,0.1449585-0.1870737,0.2636719-0.1870737h8.774147c0.1185837,0,0.2242432,0.074863,0.2635574,0.1867371
		l12.996521,36.981472c0.063858,0.181694-0.0709686,0.3719826-0.2635498,0.3719826h-7.4486618
		c-0.1202469,0-0.2269974-0.0769424-0.2650223-0.1910172l-2.1250763-6.3752251
		C121.269104,31.4998035,121.1623535,31.4228592,121.0421066,31.4228592z M118.8135986,24.1365204l-4.759697-14.1805992
		c-0.0852432-0.253952-0.4444351-0.2539568-0.5296783-0.0000067l-4.7601166,14.1805983
		c-0.0607605,0.1810036,0.0739059,0.3682613,0.2648315,0.3682613h9.5198212
		C118.7396851,24.5047741,118.8743515,24.317522,118.8135986,24.1365204z"/>
	<path class="st1" d="M164.3077087,0.9421173v36.9358139c0,0.1668968-0.1352997,0.3021889-0.3021851,0.3021889h-5.1714172
		c-0.0985413,0-0.1909027-0.0480461-0.247467-0.1287384l-15.9983368-22.8243256v22.6508751
		c0,0.1668968-0.1352997,0.3021889-0.3022003,0.3021889h-6.7961731c-0.1668854,0-0.3021851-0.1352921-0.3021851-0.3021889V0.9421173
		c0-0.1668943,0.1352997-0.3021888,0.3021851-0.3021888h5.1716309c0.0984344,0,0.1906891,0.0479332,0.2472687,0.1284679
		l15.9983368,22.7709904V0.9421173c0-0.1668943,0.1352844-0.3021888,0.3021851-0.3021888h6.7961731
		C164.1724091,0.6399285,164.3077087,0.775223,164.3077087,0.9421173z"/>
	<path class="st1" d="M191.3526306,38.0270004l-6.932373-11.6221313c-0.1217804-0.2041588-0.4174652-0.2041626-0.5392456-0.0000076
		l-6.9328308,11.6221428c-0.0566406,0.0949554-0.1590576,0.1531143-0.2696228,0.1531143h-7.6350098
		c-0.2436371,0-0.3944244-0.2654305-0.2696686-0.4746971l11.0977936-18.6174469
		c0.0590057-0.0989799,0.0590363-0.2223301,0.0001068-0.3213444L169.3633118,1.1144699
		c-0.1245728-0.2092707,0.0262146-0.4745414,0.2697601-0.4745414h7.6352081c0.110672,0,0.2131653,0.058268,0.2697601,0.1533644
		l6.3428192,10.6555243c0.1217194,0.2044897,0.4178162,0.2044849,0.5395355-0.0000076l6.3423767-10.655509
		c0.0566101-0.0951009,0.1591034-0.1533724,0.2697754-0.1533724h7.6343689c0.2437134,0,0.3945007,0.2656246,0.2695465,0.4748896
		L188.4294891,18.712759c-0.0592041,0.099144-0.0591888,0.2227802,0.0000153,0.3219166l11.1506042,18.6705208
		c0.1249695,0.2092628-0.0258026,0.4749222-0.2695465,0.4749222h-7.6882935
		C191.5116882,38.1801186,191.4092712,38.1219559,191.3526306,38.0270004z"/>
	<path class="st1" d="M47.6094856,31.0818596c-0.9661407-0.1253796-1.7151222-0.9423447-1.7151222-1.9426479v-6.1680145
		c0-0.1600227,0.1297417-0.2897625,0.2897339-0.2897625H59.816227c0.1600494,0,0.2897873-0.1297398,0.2897873-0.2897911v-6.3921137
		c0-0.1600504-0.1297379-0.2897902-0.2897873-0.2897902H46.1840973c-0.1599922,0-0.2897339-0.1297407-0.2897339-0.2897625V8.0088358
		c0-0.1600504,0.1297417-0.2897906,0.2897339-0.2897906h14.9729843c0.1600494,0,0.2897911-0.1297402,0.2897911-0.2897625V0.9296942
		c0-0.1600224-0.1297417-0.2897626-0.2897911-0.2897626H38.7835808c-0.1600533,0-0.2897339,0.1297402-0.2897339,0.2897626v22.615221
		v7.6331711c0,3.874445,3.1408463,7.0153217,7.0152626,7.0153217h16.2055702v-7.1115494H47.6094856z"/>
</g>
</svg>
